<?xml version="1.0" standalone="no"?>
<!DOCTYPE svg PUBLIC "-//W3C//DTD SVG 20010904//EN"
 "http://www.w3.org/TR/2001/REC-SVG-20010904/DTD/svg10.dtd">
<svg version="1.0" xmlns="http://www.w3.org/2000/svg"
 width="500.000000pt" height="500.000000pt" viewBox="0 0 500.000000 500.000000"
 preserveAspectRatio="xMidYMid meet">

<g transform="translate(0.000000,500.000000) scale(0.100000,-0.100000)"
fill="#000000" stroke="none">
<path d="M3250 4094 c-142 -25 -223 -57 -337 -136 -84 -58 -164 -148 -212
-238 -42 -78 -41 -86 11 -83 24 1 44 7 46 12 2 5 20 36 41 68 90 137 237 241
394 278 77 18 212 19 296 1 176 -38 349 -174 430 -338 205 -418 -44 -897 -494
-953 -74 -10 -193 10 -272 46 -44 19 -82 28 -132 30 -38 2 -72 1 -75 -2 -9 -9
116 -85 187 -113 127 -49 294 -57 427 -19 75 21 194 83 255 132 109 88 215
258 246 396 18 79 18 283 0 360 -60 254 -261 462 -521 539 -54 16 -240 29
-290 20z"/>
<path d="M3330 3885 c0 -60 3 -75 15 -75 12 0 15 15 15 75 0 60 -3 75 -15 75
-12 0 -15 -15 -15 -75z"/>
<path d="M3437 3944 c-4 -4 -7 -19 -6 -33 l0 -26 10 24 c10 26 8 47 -4 35z"/>
<path d="M1010 3918 c0 -7 17 -22 37 -33 20 -11 46 -33 57 -48 19 -26 21 -44
24 -352 3 -179 1 -373 -3 -432 -7 -99 -9 -109 -35 -135 -16 -16 -42 -31 -59
-34 -17 -4 -31 -13 -31 -20 0 -12 55 -14 338 -12 l337 3 12 75 c27 166 33 234
21 241 -8 5 -21 -12 -38 -52 -33 -77 -85 -138 -143 -167 -59 -29 -149 -40
-182 -22 l-25 13 0 431 c0 410 1 433 20 463 19 32 66 63 94 63 10 0 13 6 10
15 -5 13 -39 15 -220 15 -165 0 -214 -3 -214 -12z"/>
<path d="M3157 3910 c3 -11 7 -20 9 -20 2 0 4 9 4 20 0 11 -4 20 -9 20 -5 0
-7 -9 -4 -20z"/>
<path d="M3520 3909 c-6 -11 -10 -25 -7 -32 2 -6 9 3 15 21 12 36 8 42 -8 11z"/>
<path d="M3251 3904 c0 -11 3 -14 6 -6 3 7 2 16 -1 19 -3 4 -6 -2 -5 -13z"/>
<path d="M3080 3868 c0 -9 5 -20 10 -23 13 -8 13 5 0 25 -8 13 -10 13 -10 -2z"/>
<path d="M3607 3873 c-4 -3 -7 -13 -7 -22 1 -13 3 -13 11 2 11 19 8 33 -4 20z"/>
<path d="M3000 3822 c6 -13 14 -21 18 -18 3 4 -2 14 -12 24 -18 16 -18 16 -6
-6z"/>
<path d="M3691 3834 c-1 -5 -47 -62 -103 -125 -56 -62 -128 -148 -161 -189
-42 -53 -69 -77 -91 -83 -47 -13 -66 -35 -66 -77 0 -45 30 -80 68 -80 23 0 38
-15 92 -87 89 -122 150 -196 150 -183 0 6 -25 52 -55 102 -30 50 -55 93 -55
95 0 3 -13 23 -29 47 -24 35 -29 50 -27 99 1 48 7 64 37 104 88 117 250 365
245 376 -2 7 -5 7 -5 1z m-333 -476 c-3 -7 -11 -13 -18 -13 -7 0 -15 6 -17 13
-3 7 4 12 17 12 13 0 20 -5 18 -12z"/>
<path d="M2920 3773 c0 -5 9 -18 20 -28 11 -10 20 -14 20 -8 0 5 -9 18 -20 28
-11 10 -20 14 -20 8z"/>
<path d="M3745 3750 c-10 -11 -13 -20 -7 -20 6 0 16 9 22 20 6 11 9 20 7 20
-2 0 -12 -9 -22 -20z"/>
<path d="M2874 3691 c11 -11 23 -21 28 -21 14 0 -1 19 -25 31 -22 12 -22 12
-3 -10z"/>
<path d="M3796 3685 c-11 -8 -16 -18 -12 -22 3 -4 16 3 29 15 24 25 12 29 -17
7z"/>
<path d="M3834 3605 c-24 -18 -7 -19 26 0 16 9 19 14 9 15 -8 0 -24 -7 -35
-15z"/>
<path d="M1710 3547 c0 -6 12 -18 28 -24 54 -25 56 -36 62 -318 5 -236 7 -263
25 -293 33 -55 79 -77 157 -76 78 2 132 28 191 93 21 23 38 38 39 34 0 -5 2
-12 3 -18 2 -5 3 -34 4 -63 1 -59 -12 -56 117 -26 100 23 106 28 67 60 l-33
25 0 310 0 309 -120 0 c-96 0 -120 -3 -120 -14 0 -8 11 -17 25 -20 49 -13 59
-52 63 -271 l4 -200 -29 -40 c-39 -53 -113 -91 -155 -79 -17 5 -40 22 -52 37
-20 27 -21 42 -24 308 l-3 279 -124 0 c-94 0 -125 -3 -125 -13z"/>
<path d="M2476 3545 c-3 -10 1 -15 11 -15 21 0 92 -75 119 -125 11 -22 31 -58
44 -80 57 -100 70 -125 70 -136 0 -6 -12 -26 -27 -43 -29 -33 -38 -45 -117
-154 -26 -34 -64 -75 -86 -90 -65 -45 -55 -52 80 -52 95 0 120 3 120 14 0 7
-13 19 -30 26 -53 22 -40 69 58 203 l34 48 24 -35 c13 -19 24 -38 24 -41 0 -4
13 -25 28 -48 58 -87 60 -117 11 -132 -10 -4 -19 -13 -19 -21 0 -11 27 -14
155 -14 130 0 155 2 155 15 0 8 -15 22 -32 31 -18 10 -39 24 -45 33 -15 19
-120 198 -169 288 l-34 61 57 84 c60 89 135 168 159 168 7 0 14 7 14 15 0 12
-19 15 -110 15 -91 0 -110 -3 -110 -15 0 -8 6 -15 13 -15 8 0 22 -9 32 -20 15
-17 16 -24 7 -45 -15 -34 -94 -137 -99 -131 -7 6 -40 64 -65 114 l-23 44 28
23 c15 13 27 29 27 35 0 6 -52 10 -149 10 -123 0 -150 -3 -155 -15z"/>
<path d="M3883 3530 c-13 -5 -23 -11 -23 -14 0 -7 40 6 46 15 6 10 6 10 -23
-1z"/>
<path d="M3893 3433 c9 -2 25 -2 35 0 9 3 1 5 -18 5 -19 0 -27 -2 -17 -5z"/>
<path d="M3800 3350 c0 -18 6 -20 71 -20 62 0 70 2 67 18 -3 14 -16 18 -71 20
-62 3 -67 1 -67 -18z"/>
<path d="M3870 3258 c0 -4 14 -8 30 -8 17 0 30 2 30 4 0 2 -13 6 -30 8 -16 3
-30 1 -30 -4z"/>
<path d="M3865 3164 c22 -16 35 -18 35 -5 0 5 -12 11 -27 14 -26 5 -26 4 -8
-9z"/>
<path d="M3834 3085 c11 -8 25 -15 30 -15 6 0 2 7 -8 15 -11 8 -25 15 -30 15
-6 0 -2 -7 8 -15z"/>
<path d="M3770 3022 c0 -6 11 -17 25 -26 14 -9 25 -13 25 -9 -1 12 -50 46 -50
35z"/>
<path d="M3725 2940 c10 -11 23 -20 28 -20 6 0 2 9 -8 20 -10 11 -23 20 -28
20 -6 0 -2 -9 8 -20z"/>
<path d="M3320 2835 c0 -60 3 -75 15 -75 12 0 15 15 15 75 0 60 -3 75 -15 75
-12 0 -15 -15 -15 -75z"/>
<path d="M3656 2875 c9 -14 19 -24 21 -21 6 6 -20 46 -30 46 -4 0 0 -11 9 -25z"/>
<path d="M3570 2854 c0 -6 7 -19 15 -30 8 -10 14 -14 14 -9 0 6 -6 19 -14 29
-8 11 -15 15 -15 10z"/>
<path d="M3490 2803 c0 -13 5 -23 10 -23 13 0 13 11 0 30 -8 12 -10 11 -10 -7z"/>
<path d="M3412 2780 c0 -14 2 -19 5 -12 2 6 2 18 0 25 -3 6 -5 1 -5 -13z"/>
<path d="M813 2699 c-104 -20 -190 -85 -232 -174 -16 -35 -21 -64 -21 -130 0
-135 51 -225 153 -273 65 -30 104 -35 110 -13 3 13 -7 21 -44 34 -57 21 -120
87 -137 145 -31 103 -1 233 68 296 43 39 99 66 136 66 50 0 65 -31 134 -285
49 -179 107 -382 128 -450 11 -33 32 -102 47 -152 l29 -93 41 0 c41 0 43 2 58
43 23 63 68 200 131 402 32 99 60 187 63 195 6 15 42 -89 89 -260 15 -52 48
-158 73 -235 l46 -140 42 -3 42 -3 21 73 c12 40 32 107 45 148 49 156 108 347
125 405 96 311 111 344 163 368 15 6 27 18 27 24 0 10 -33 13 -135 13 -113 0
-135 -2 -135 -15 0 -10 10 -15 28 -15 18 0 38 -10 52 -25 23 -24 23 -28 12
-83 -10 -50 -77 -271 -156 -517 -14 -44 -26 -85 -26 -92 0 -7 -4 -13 -8 -13
-5 0 -16 28 -25 63 -8 34 -25 94 -37 132 -21 68 -27 90 -49 165 -5 19 -24 85
-42 145 -17 61 -32 133 -33 160 -1 48 0 50 32 60 17 5 32 15 32 22 0 10 -38
13 -170 13 -144 0 -170 -2 -170 -15 0 -8 8 -15 17 -15 32 0 53 -34 84 -132
l30 -99 -20 -67 c-10 -37 -47 -145 -80 -241 -34 -96 -61 -177 -61 -180 0 -16
-23 22 -30 50 -9 36 -107 379 -140 489 -32 109 -35 138 -15 160 10 11 26 20
37 20 11 0 18 7 18 20 0 19 -6 20 -152 19 -84 -1 -172 -5 -195 -10z"/>
<path d="M3848 2662 c-60 -19 -108 -38 -108 -41 0 -3 17 -15 38 -26 l37 -20 3
-395 c1 -217 0 -405 -3 -418 -4 -14 -19 -29 -40 -38 -65 -27 -40 -34 119 -34
161 0 195 9 133 35 -20 8 -37 24 -41 37 -3 13 -6 114 -6 224 0 227 2 234 81
274 83 43 140 15 159 -77 16 -74 9 -399 -8 -430 -7 -13 -24 -26 -37 -29 -14
-3 -25 -12 -25 -20 0 -11 29 -14 155 -14 131 0 155 2 155 15 0 8 -7 15 -15 15
-9 0 -27 11 -40 25 l-25 24 0 224 c0 290 -14 334 -117 373 -84 33 -192 1 -256
-76 l-27 -32 0 221 c0 171 -3 221 -12 220 -7 0 -61 -17 -120 -37z"/>
<path d="M2856 2511 c-33 -62 -99 -130 -151 -156 -56 -29 -53 -49 8 -48 l47 1
0 -272 c0 -252 1 -273 20 -303 37 -61 133 -80 214 -42 64 30 124 84 110 99 -9
9 -19 8 -42 -4 -45 -23 -105 -21 -128 5 -17 19 -19 41 -22 232 -2 116 -1 226
3 244 l6 33 89 0 90 0 0 30 0 29 -92 3 -93 3 0 98 c0 115 -15 128 -59 48z"/>
<path d="M3424 2375 c-82 -18 -129 -44 -186 -101 -59 -58 -86 -113 -100 -198
-44 -265 167 -471 394 -386 88 33 198 144 170 172 -8 8 -21 2 -45 -19 -52 -46
-116 -67 -181 -60 -65 6 -98 26 -135 81 -40 60 -54 122 -49 220 7 143 72 241
158 241 52 0 95 -42 120 -116 23 -68 46 -75 95 -26 78 78 24 165 -123 196 -29
6 -54 11 -55 10 -1 0 -30 -7 -63 -14z"/>
<path d="M2265 2373 c-71 -15 -157 -70 -186 -116 -26 -43 -25 -103 1 -117 27
-15 88 -2 100 21 6 10 10 35 10 57 0 78 71 122 143 87 44 -20 58 -53 65 -140
l4 -71 -98 -38 c-139 -55 -184 -79 -225 -121 -108 -107 -41 -265 111 -265 46
0 132 36 177 74 l32 27 7 -25 c9 -38 59 -76 100 -76 41 0 113 32 144 65 32 34
18 48 -26 27 -35 -16 -36 -16 -55 7 -17 21 -19 42 -19 255 0 218 -1 233 -21
266 -29 47 -55 68 -98 80 -36 10 -128 12 -166 3z m135 -434 c0 -50 -5 -99 -10
-110 -15 -28 -83 -59 -129 -59 -32 0 -43 5 -60 29 -53 74 8 171 136 217 64 22
63 23 63 -77z"/>
</g>
</svg>
